<svg xmlns="http://www.w3.org/2000/svg" width="108.953" height="87.124" viewBox="0 0 108.953 87.124"><defs><style>.a{fill:#0030ff;}</style></defs><path class="a" d="M681.809,373.988c-7.822.132-15.647.04-23.47.043-3.682,0-5.919,2.246-5.92,5.939v49.874c0,2.447.359,5.715,4.308,5.9h27.694c2.59-.188,3.825,0,4.314-4.314V378.346C687.584,375.049,685.2,373.936,681.809,373.988Zm-25.742,5.485a1.778,1.778,0,0,1,2.03-1.8c2.8-.018,5.591-.006,8.388-.006h16.209c1.8,0,2.4.6,2.407,2.353.006,1.582,0,3.164,0,4.826H656.056C656.056,383.011,656.02,381.24,656.068,379.472Zm28.958,51.169c-.072,1.025-.931,1.479-1.97,1.476H658.571c-1.947,0-2.516-.56-2.516-2.465V424.9h29.009c0,1.935.1,3.853-.038,5.747Zm.077-9.509H656.109V388.622H685.1v32.516Z" transform="translate(-579.783 -348.622)"/><path class="a" d="M138.875,168.3c0-3.764-2.223-5.97-6-5.973H61.531c-4.025,0-6.177,2.137-6.177,6.139v48.317c-2.431,0-4.7-.013-6.964,0a1.849,1.849,0,0,0-2.11,2.077c-.02,1.36-.012,2.721,0,4.083a8.126,8.126,0,0,0,8.406,8.354q29.1.013,58.2,0c1.53,0,2.376-.653,2.378-1.813s-.839-1.807-2.373-1.817H55.372c-.377,0-.756.011-1.134,0a4.265,4.265,0,0,1-4.114-3.293,26.416,26.416,0,0,1-.274-3.889H80.507c0,1.16-.019,2.249,0,3.337a1.8,1.8,0,0,0,2.029,2.029q15.487.016,30.973,0a1.8,1.8,0,0,0,2.026-2.037c.025-1.438.008-2.876.007-4.314,0-2.268-.457-2.726-2.706-2.726H59.025c-.017-.321-.04-.54-.04-.76V168.153c0-1.558.653-2.2,2.217-2.2,2.574-.006,57.192,0,71.6,0,1.856,0,2.439.582,2.442,2.434q.007,4.025,0,8.05c0,1.928-.081,3.861.054,5.78a2.411,2.411,0,0,0,1.079,1.648,1.849,1.849,0,0,0,1.727-.2,2.84,2.84,0,0,0,.741-1.874C138.9,177.3,138.881,172.8,138.875,168.3ZM84.222,220.484h27.644v1.678H84.222Z" transform="translate(-46.267 -162.33)"/></svg>