<?xml version="1.0" standalone="no"?>
<!DOCTYPE svg PUBLIC "-//W3C//DTD SVG 20010904//EN"
 "http://www.w3.org/TR/2001/REC-SVG-20010904/DTD/svg10.dtd">
<svg version="1.0" xmlns="http://www.w3.org/2000/svg"
 width="1915.000000pt" height="181.000000pt" viewBox="0 0 1915.000000 181.000000"
 preserveAspectRatio="xMidYMid meet">

<g transform="translate(0.000000,181.000000) scale(0.100000,-0.100000)"
fill="#0030ff" stroke="none">
<path d="M602 1800 c-183 -23 -343 -92 -444 -192 -104 -104 -148 -211 -148
-363 0 -153 46 -261 153 -362 114 -106 228 -146 531 -188 206 -28 242 -39 274
-80 33 -42 29 -90 -11 -130 -44 -44 -99 -58 -227 -57 -221 1 -433 74 -614 211
l-66 50 0 -238 0 -237 72 -42 c187 -106 405 -162 627 -162 395 1 678 202 722
514 36 262 -110 483 -370 560 -30 9 -156 30 -279 46 -251 34 -294 49 -318 105
-84 202 455 206 799 6 l67 -40 -2 235 -3 236 -67 28 c-190 81 -495 125 -696
100z"/>
<path d="M4592 1790 c-135 -19 -260 -76 -339 -156 -165 -165 -175 -463 -22
-629 87 -95 162 -124 467 -180 264 -49 317 -69 382 -142 104 -119 86 -302 -41
-417 -85 -76 -214 -112 -362 -102 -170 12 -323 85 -470 225 l-78 74 3 -108 3
-108 70 -54 c80 -62 202 -124 290 -148 90 -25 302 -31 395 -11 101 22 204 72
272 135 142 130 187 368 103 546 -42 89 -153 178 -265 213 -19 6 -138 30 -264
52 -127 23 -250 50 -274 60 -70 31 -119 76 -149 138 -24 49 -28 69 -28 142 1
69 5 94 24 130 68 132 203 200 397 200 163 0 307 -52 452 -164 l72 -56 0 103
0 103 -72 42 c-93 53 -147 75 -229 96 -80 20 -252 28 -337 16z"/>
<path d="M18432 1789 c-82 -10 -150 -33 -235 -77 -315 -163 -317 -646 -2 -800
80 -39 70 -37 337 -86 240 -45 295 -62 361 -117 122 -100 123 -305 3 -424 -90
-90 -220 -132 -377 -121 -189 13 -353 95 -506 255 l-53 56 0 -107 0 -108 67
-55 c75 -62 217 -136 308 -160 82 -22 284 -31 371 -16 144 26 287 109 355 207
92 134 110 327 44 471 -49 107 -159 193 -290 227 -33 8 -152 31 -265 51 -159
27 -219 42 -267 66 -116 56 -170 154 -161 290 14 196 170 309 427 309 160 0
298 -51 449 -165 l72 -55 0 103 0 104 -92 51 c-173 95 -348 127 -546 101z"/>
<path d="M1630 910 l0 -870 245 0 245 0 2 572 3 573 188 -563 189 -563 135 3
136 3 183 560 183 560 1 -572 0 -573 245 0 245 0 0 870 0 870 -342 -2 -343 -3
-149 -492 c-83 -271 -153 -490 -157 -485 -4 4 -68 212 -143 462 -76 250 -142
470 -147 488 l-11 32 -354 0 -354 0 0 -870z"/>
<path d="M5592 1163 c4 -691 2 -663 78 -819 74 -152 234 -273 412 -310 110
-24 300 -14 396 19 204 71 344 227 399 442 16 63 18 129 18 675 l0 605 -77 3
-77 3 -3 -608 c-3 -557 -5 -613 -22 -663 -66 -198 -199 -314 -393 -342 -272
-39 -503 118 -559 380 -11 53 -14 186 -14 650 l0 582 -80 0 -81 0 3 -617z"/>
<path d="M7260 911 l0 -871 80 0 80 0 0 354 0 354 313 5 c253 3 323 7 372 21
179 51 293 150 355 311 20 51 24 78 24 180 0 102 -4 129 -24 180 -62 160 -176
260 -355 311 -51 15 -120 18 -452 22 l-393 4 0 -871z m862 676 c137 -67 200
-169 200 -322 0 -153 -63 -255 -200 -322 l-76 -38 -313 -3 -313 -3 0 366 0
366 313 -3 313 -3 76 -38z"/>
<path d="M8760 910 l0 -870 545 0 545 0 0 70 0 70 -465 0 -465 0 0 340 0 340
405 0 405 0 0 75 0 75 -405 0 -405 0 0 310 0 310 465 0 465 0 0 75 0 75 -545
0 -545 0 0 -870z"/>
<path d="M10190 911 l0 -871 80 0 80 0 0 365 0 365 192 -2 193 -3 255 -360
256 -360 97 -3 c53 -1 97 0 97 2 0 3 -112 162 -250 354 -137 192 -251 355
-252 362 -2 9 21 17 71 26 248 43 411 237 411 489 0 235 -136 412 -370 482
-46 13 -124 17 -457 20 l-403 5 0 -871z m836 698 c57 -18 77 -31 129 -82 45
-45 66 -76 78 -112 25 -76 30 -145 17 -211 -24 -117 -90 -202 -199 -253 l-56
-26 -322 -3 -323 -3 0 355 0 356 304 0 c280 0 309 -2 372 -21z"/>
<path d="M11760 910 l0 -870 75 0 75 0 0 757 c0 437 4 753 9 748 5 -6 134
-342 286 -748 l278 -738 75 3 75 3 296 745 296 744 3 -757 2 -757 80 0 80 0 0
870 0 870 -118 0 -118 0 -294 -755 c-161 -415 -294 -755 -295 -755 -1 0 -130
340 -286 755 l-283 755 -118 0 -118 0 0 -870z"/>
<path d="M13995 988 c-159 -436 -301 -828 -317 -871 l-28 -78 82 3 82 3 88
245 c48 135 95 264 104 288 l16 42 356 -2 357 -3 104 -287 104 -288 83 0 84 0
-23 62 c-13 35 -156 426 -317 871 l-294 807 -96 0 -96 0 -289 -792z m535 192
c79 -217 145 -401 148 -407 3 -10 -60 -13 -297 -13 -211 0 -301 3 -301 11 0
26 294 819 300 812 5 -4 72 -186 150 -403z"/>
<path d="M15370 910 l0 -870 550 0 550 0 0 70 0 70 -470 0 -470 0 0 800 0 800
-80 0 -80 0 0 -870z"/>
<path d="M16730 910 l0 -870 550 0 550 0 0 70 0 70 -470 0 -470 0 -2 798 -3
797 -77 3 -78 3 0 -871z"/>
</g>
</svg>
