<svg id="messenger" xmlns="http://www.w3.org/2000/svg" width="37.716" height="37.995" viewBox="0 0 37.716 37.995"><defs><style>.a{fill:#0030ff;}</style></defs><g transform="translate(-1861 -39.003)"><path class="a" d="M54.787,79.015H53.9a.364.364,0,0,0-.092-.057,3.026,3.026,0,0,1-2.476-3.189c0-1.311.007-2.621-.009-3.931a1.04,1.04,0,0,0-.193-.568,18.489,18.489,0,0,1-3.466-15.063A18.841,18.841,0,1,1,59.1,77.323a.775.775,0,0,0-.693.022C57.208,77.916,56,78.461,54.787,79.015Zm-.757-5.547c0,.779,0,1.558,0,2.337,0,.5.2.62.65.4,1.04-.515,2.089-1.014,3.111-1.562a1.875,1.875,0,0,1,1.793-.042,15.721,15.721,0,0,0,10,1.043,16.148,16.148,0,0,0-3.406-31.924,15.39,15.39,0,0,0-10.3,3.727,15.75,15.75,0,0,0-5.626,15.279,15.057,15.057,0,0,0,3.276,7.205,2.142,2.142,0,0,1,.513,1.5C54.012,72.108,54.03,72.788,54.03,73.468Z" transform="translate(1813.715 -2.017)"/><path class="a" d="M292.337,366.735a4.173,4.173,0,0,1-.216.527q-2.431,4.22-4.872,8.434a.87.87,0,0,1-1.373.34q-2.591-1.548-5.177-3.106a.939.939,0,0,0-1.368.077l-4.626,3.529a.832.832,0,0,1-1.388-.5,1.01,1.01,0,0,1,.161-.655q3.05-4.379,6.129-8.738a.861.861,0,0,1,1.352-.152q1.931,1.441,3.855,2.889a.946.946,0,0,0,1.369.018l4.66-3.293a.841.841,0,0,1,1.272.125A2.7,2.7,0,0,1,292.337,366.735Z" transform="translate(1597.094 -313.354)"/></g></svg>