<svg xmlns="http://www.w3.org/2000/svg" width="91.025" height="91.025" viewBox="0 0 91.025 91.025"><defs><style>.a{fill:#1238f5;}.b,.c{fill:none;stroke-linecap:round;stroke-linejoin:round;stroke-width:5px;}.b{stroke:#0030ff;}.c{stroke:#1238f5;}</style></defs><g transform="translate(0 0)"><path class="a" d="M252.882,2061.989h0a6.172,6.172,0,0,1-5.241-2.885l-7.01-11.077-14.94,2.751a6.2,6.2,0,0,1-7.22-7.246l2.763-14.71-11.073-7.01a6.2,6.2,0,0,1,0-10.483l11.073-7.007-2.773-14.812a6.2,6.2,0,0,1,7.2-7.246l14.777,2.669,7.013-11.081a6.2,6.2,0,0,1,10.483,0l7.016,11.082,14.816-2.676a6.2,6.2,0,0,1,7.208,7.2l-2.64,14.668,11.082,7.013a6.2,6.2,0,0,1,0,10.483l-11.086,7.018,2.653,14.943a6.2,6.2,0,0,1-7.25,7.182l-14.6-2.735-7.01,11.074A6.173,6.173,0,0,1,252.882,2061.989Zm-11.241-18.362a2.09,2.09,0,0,1,1.765.972l7.765,12.27a2,2,0,0,0,1.71.942h0a2,2,0,0,0,1.71-.941l7.768-12.271a2.089,2.089,0,0,1,2.15-.936l15.994,3a2.024,2.024,0,0,0,2.366-2.344l-2.9-16.324a2.089,2.089,0,0,1,.94-2.131l12.271-7.768a2.025,2.025,0,0,0,0-3.421l-12.27-7.764a2.09,2.09,0,0,1-.939-2.136l2.889-16.052a2.024,2.024,0,0,0-2.352-2.35l-16.2,2.926a2.087,2.087,0,0,1-2.137-.939l-7.768-12.27a2.024,2.024,0,0,0-3.421,0l-7.765,12.27a2.088,2.088,0,0,1-2.137.939l-16.161-2.919a2.024,2.024,0,0,0-2.349,2.365l3.033,16.2a2.089,2.089,0,0,1-.936,2.15l-12.27,7.765a2.024,2.024,0,0,0,0,3.421l12.271,7.768a2.09,2.09,0,0,1,.936,2.151l-3.025,16.1a2.024,2.024,0,0,0,2.356,2.364l16.328-3.006A2.109,2.109,0,0,1,241.641,2043.626Z" transform="translate(-207.276 -1970.964)"/><line class="b" x1="22.171" y2="28.892" transform="translate(34.624 32.304)"/><ellipse class="c" cx="6.746" cy="6.746" rx="6.746" ry="6.746" transform="translate(50.049 47.704)"/><ellipse class="c" cx="6.746" cy="6.746" rx="6.746" ry="6.746" transform="translate(27.878 30.807)"/></g></svg>